<svg width="48" height="48" viewBox="0 0 24 24" fill="none" xmlns="http://www.w3.org/2000/svg">
    <defs>
        <linearGradient id="logoGradient" x1="0%" y1="0%" x2="100%" y2="100%">
            <stop offset="0%" stop-color="#38bdf8" />
            <stop offset="100%" stop-color="#22d3ee" />
        </linearGradient>
    </defs>
    <path d="M12 2C6.477 2 2 6.477 2 12C2 17.523 6.477 22 12 22C17.523 22 22 17.523 22 12C22 6.477 17.523 2 12 2ZM12 4C16.418 4 20 7.582 20 12C20 16.418 16.418 20 12 20C7.582 20 4 16.418 4 12C4 7.582 7.582 4 12 4Z" fill="url(#logoGradient)" fill-opacity="0.3"/>
    <path d="M7 12H9" stroke="url(#logoGradient)" stroke-width="1.5" stroke-linecap="round" stroke-linejoin="round"/>
    <path d="M15 12H17" stroke="url(#logoGradient)" stroke-width="1.5" stroke-linecap="round" stroke-linejoin="round"/>
    <path d="M11 12H13" stroke="url(#logoGradient)" stroke-width="2" stroke-linecap="round" stroke-linejoin="round"/>
    <path d="M12 7V9" stroke="url(#logoGradient)" stroke-width="1.5" stroke-linecap="round" stroke-linejoin="round"/>
    <path d="M12 15V17" stroke="url(#logoGradient)" stroke-width="1.5" stroke-linecap="round" stroke-linejoin="round"/>
</svg>
