<?xml version="1.0" standalone="no"?>
<!DOCTYPE svg PUBLIC "-//W3C//DTD SVG 20010904//EN"
 "http://www.w3.org/TR/2001/REC-SVG-20010904/DTD/svg10.dtd">
<svg version="1.0" xmlns="http://www.w3.org/2000/svg"
 width="256.000000pt" height="253.000000pt" viewBox="0 0 256.000000 253.000000"
 preserveAspectRatio="xMidYMid meet">

<g transform="translate(0.000000,253.000000) scale(0.100000,-0.100000)"
fill="#000000" stroke="none">
<path d="M0 2323 l1 -208 24 45 c62 112 97 192 92 209 -3 13 1 21 14 24 15 4
19 15 19 49 0 30 3 39 10 28 10 -17 12 -16 34 28 l17 32 -106 0 -105 0 0 -207z"/>
<path d="M421 2483 c-7 -27 -15 -56 -18 -65 -4 -14 1 -18 21 -18 19 0 26 -5
26 -20 0 -16 -7 -20 -33 -20 -32 0 -34 -2 -56 -70 -18 -59 -23 -95 -24 -219
-1 -82 1 -152 4 -156 8 -8 237 -8 249 0 6 4 10 95 10 226 l0 219 -65 0 c-58 0
-65 2 -65 20 0 18 7 20 75 20 71 0 75 1 75 23 0 18 -2 19 -10 7 -7 -11 -10 -3
-10 28 0 26 4 41 10 37 6 -3 10 1 10 10 0 9 -4 13 -10 10 -5 -3 -10 -1 -10 4
0 7 -31 11 -83 11 l-83 0 -13 -47z"/>
<path d="M638 2465 l-3 -65 77 0 76 0 16 43 c34 95 40 87 -67 87 l-95 0 -4
-65z"/>
<path d="M990 2503 c0 -16 -3 -45 -6 -65 l-7 -38 147 0 146 0 -4 48 c-2 26 -4
55 -5 65 -1 15 -14 17 -136 17 l-135 0 0 -27z"/>
<path d="M1290 2465 l0 -65 180 0 180 0 0 65 0 65 -59 0 -60 0 -4 -47 -3 -48
-2 48 -2 47 -115 0 -115 0 0 -65z"/>
<path d="M1810 2516 c0 -7 7 -37 17 -65 l16 -51 101 -1 c56 0 111 -2 124 -3
21 -3 22 1 22 66 l0 68 -140 0 c-113 0 -140 -3 -140 -14z"/>
<path d="M2103 2463 l2 -68 73 -3 c83 -3 83 -3 57 86 l-16 52 -59 0 -58 0 1
-67z"/>
<path d="M2500 2516 c0 -8 5 -18 10 -21 6 -3 10 -13 10 -20 0 -8 9 -29 20 -47
l20 -33 0 68 0 67 -30 0 c-19 0 -30 -5 -30 -14z"/>
<path d="M1118 2362 c-82 -1 -148 -4 -148 -5 -1 -1 -11 -81 -24 -177 l-23
-174 43 49 c24 28 46 58 50 68 3 9 9 15 14 12 4 -2 48 38 97 90 70 74 95 95
116 95 17 0 27 5 27 15 0 8 5 15 10 15 6 0 10 -7 10 -15 0 -8 13 -21 29 -29
45 -24 236 -211 303 -298 34 -43 63 -76 65 -74 3 3 0 51 -6 108 -6 57 -13 151
-17 210 l-7 107 -196 3 c-108 2 -262 2 -343 0z"/>
<path d="M641 2168 l0 -193 31 80 c17 45 33 112 38 155 4 41 8 62 9 47 0 -16
5 -26 10 -22 8 4 41 101 41 119 0 3 -29 6 -65 6 l-65 0 1 -192z"/>
<path d="M1854 2343 c11 -37 45 -180 56 -237 8 -41 15 -55 21 -45 6 10 9 7 9
-13 0 -53 7 -58 81 -58 59 0 69 3 70 18 0 9 0 80 -1 157 -1 77 2 136 6 132 4
-4 8 -49 9 -100 1 -50 2 -118 3 -149 l2 -58 101 0 102 0 -7 123 c-4 72 -14
147 -25 182 l-19 60 -76 3 c-77 3 -81 1 -77 -35 1 -7 -3 -13 -9 -13 -5 0 -10
11 -10 25 l0 25 -121 0 c-110 0 -120 -2 -115 -17z"/>
<path d="M2485 2330 c4 -19 11 -39 16 -44 15 -16 10 19 -7 50 l-15 29 6 -35z"/>
<path d="M622 2250 c0 -14 2 -19 5 -12 2 6 2 18 0 25 -3 6 -5 1 -5 -13z"/>
<path d="M1208 2239 c-38 -21 -98 -82 -98 -99 0 -5 11 -12 25 -16 30 -7 32
-27 5 -54 -22 -22 -4 -29 19 -7 11 10 11 8 2 -10 -7 -14 -18 -20 -31 -18 -24
5 -52 -4 -46 -14 3 -4 1 -13 -5 -21 -7 -13 -9 -13 -9 0 0 13 -1 13 -10 0 -9
-13 -10 -13 -10 0 -1 12 -3 11 -11 -2 -5 -10 -17 -18 -25 -18 -8 0 -12 -5 -9
-10 7 -11 -35 -31 -47 -23 -4 2 -5 -3 -2 -11 3 -9 1 -16 -6 -16 -6 0 -8 -5 -4
-12 4 -7 3 -8 -4 -4 -6 3 -16 -3 -22 -14 -6 -11 -15 -18 -21 -15 -8 6 -13 -7
-10 -27 0 -4 -8 -10 -19 -13 -11 -4 -18 -11 -15 -16 4 -5 -1 -12 -9 -15 -9 -3
-16 -12 -16 -20 0 -8 -4 -14 -8 -14 -5 0 -9 -6 -9 -13 0 -9 14 -6 45 10 24 12
49 26 56 31 6 5 23 9 38 8 14 -1 24 2 22 6 -3 4 -1 8 4 8 21 0 20 -30 -1 -41
-12 -7 -29 -19 -37 -28 -8 -9 -35 -32 -60 -51 -46 -35 -54 -42 -125 -104 -53
-46 -30 -45 48 2 81 49 202 98 301 122 94 23 115 19 30 -5 -124 -35 -226 -74
-279 -106 -30 -18 -55 -37 -55 -41 0 -4 -5 -8 -11 -8 -12 0 -37 -19 -118 -88
-94 -81 -138 -134 -178 -211 -44 -89 -49 -158 -18 -255 20 -63 74 -143 94
-138 32 7 121 -72 121 -108 0 -8 11 -25 24 -39 28 -29 34 -9 -47 -183 -44 -94
-130 -238 -143 -238 -3 0 0 10 8 22 94 146 197 376 175 390 -7 5 -16 1 -22 -9
-19 -32 -46 -54 -57 -47 -7 4 -8 3 -4 -4 4 -7 3 -12 -1 -12 -5 0 -18 -7 -29
-15 -18 -14 -17 -15 11 -9 108 23 -124 -63 -375 -139 -98 -30 -118 -43 -125
-76 -6 -31 -15 -40 -15 -15 -1 27 -24 54 -47 54 -16 0 -22 -9 -27 -33 -11 -61
-17 -160 -9 -166 8 -6 43 -77 43 -87 0 -4 -11 1 -25 10 l-25 16 0 -45 c0 -36
4 -45 18 -46 9 0 148 0 309 1 266 1 296 3 332 21 22 10 44 19 48 18 4 0 -10
-9 -32 -20 l-40 -18 62 -1 c34 0 65 -4 68 -10 4 -7 -125 -10 -379 -10 l-386 0
0 -35 0 -36 1278 3 1277 3 2 250 3 250 -28 -34 -28 -33 4 59 4 59 -43 19 c-24
11 -46 23 -49 27 -3 4 -15 9 -25 11 -11 2 -33 10 -50 16 -16 7 -47 15 -67 18
-23 3 -35 10 -31 16 4 6 0 8 -10 4 -10 -3 -17 -3 -17 2 0 4 -12 7 -27 7 -16
-1 -40 4 -55 11 -16 8 -28 10 -28 6 0 -5 -5 0 -11 10 -8 14 -14 16 -25 6 -11
-9 -14 -9 -14 1 0 8 -2 11 -5 8 -3 -3 -31 19 -61 49 -40 38 -60 51 -68 44 -7
-6 15 42 48 107 l60 117 4 109 c7 169 -16 235 -125 351 -29 31 -107 95 -116
95 -3 0 -39 16 -80 35 -41 19 -79 35 -85 35 -6 0 -12 5 -14 11 -2 6 -15 13
-28 15 -14 1 -56 12 -95 23 -38 11 -73 17 -77 15 -4 -3 -8 0 -8 6 0 6 -4 9 -8
6 -11 -7 -86 13 -78 21 11 12 240 -42 404 -95 18 -6 30 -7 27 -1 -4 5 -10 9
-15 9 -5 0 -26 15 -46 34 -21 19 -41 33 -45 30 -4 -2 -9 3 -13 11 -3 8 -15 15
-26 15 -11 0 -20 5 -20 11 0 6 -6 9 -12 7 -7 -3 -22 4 -33 15 -16 16 -17 19
-3 14 9 -3 19 0 22 9 5 12 12 11 48 -7 23 -12 54 -25 69 -29 23 -7 26 -5 22
10 -5 18 -38 55 -78 86 -11 8 -14 12 -6 8 9 -5 12 -3 7 4 -4 7 -13 12 -20 12
-7 0 -23 9 -36 20 -13 11 -32 20 -44 20 -17 0 -18 2 -6 10 9 6 10 10 3 10 -6
0 -15 -4 -18 -10 -3 -5 -13 -10 -21 -10 -11 0 -14 6 -9 23 5 19 4 20 -5 5 -6
-10 -19 -18 -28 -18 -15 0 -15 2 -2 10 14 9 7 14 -13 11 -5 -1 -6 3 -3 8 3 5
-2 15 -11 22 -11 10 -14 10 -9 2 5 -9 2 -11 -9 -7 -12 5 -13 10 -6 17 16 16
13 31 -3 18 -17 -14 -32 2 -20 21 4 6 3 8 -3 5 -6 -4 -10 11 -11 36 0 23 2 36
5 30 2 -7 13 -13 24 -13 10 0 19 -5 19 -12 0 -6 2 -9 6 -6 3 3 26 -2 53 -12
55 -21 83 -14 52 14 -11 10 -25 15 -32 10 -7 -4 -10 -3 -6 3 4 6 -5 19 -20 29
-26 16 -37 25 -66 49 -34 29 -77 55 -91 55 -9 0 -16 5 -16 10 0 16 -31 11 -72
-11z m342 -703 c0 -6 -93 -36 -98 -32 -7 7 52 35 76 36 12 0 22 -2 22 -4z m39
-56 c27 -14 55 -88 40 -106 -15 -18 -47 -17 -79 1 -38 22 -128 19 -168 -5 -18
-11 -37 -18 -43 -15 -16 10 -10 -34 12 -83 44 -101 35 -94 114 -90 65 3 75 6
115 41 50 42 53 43 75 20 21 -20 15 -85 -10 -113 -34 -38 -70 -44 -140 -25
-36 9 -76 26 -90 37 -14 11 -25 15 -25 11 0 -23 30 -43 83 -57 33 -8 61 -17
64 -19 8 -9 -42 -76 -65 -87 -38 -17 -84 -12 -109 12 -28 26 -29 38 -3 38 11
0 20 5 20 10 0 15 -26 12 -40 -5 -16 -19 -76 -30 -103 -18 -21 10 -21 10 9 26
18 9 34 24 38 32 3 9 6 75 6 146 0 97 4 138 15 159 15 29 45 41 45 19 0 -5 5
-7 10 -4 6 4 23 8 38 11 15 3 59 20 97 39 81 40 71 38 94 25z m-349 -84 l0
-29 -25 23 c-22 21 -23 25 -10 40 8 9 14 19 13 21 -2 2 3 -2 10 -10 6 -8 12
-28 12 -45z m-141 -2 c2 -2 -16 -4 -40 -4 -25 0 -62 -9 -84 -20 -28 -14 -35
-16 -24 -4 33 32 123 49 148 28z m428 -22 c6 -4 -17 -7 -52 -7 -54 0 -68 -4
-91 -25 -15 -14 -25 -19 -22 -11 11 36 128 67 165 43z m-7 -42 c0 -5 -12 -10
-27 -9 -25 0 -26 1 -8 9 27 12 35 12 35 0z m15 -30 c-11 -5 -36 -8 -55 -8
l-35 0 30 8 c17 4 41 8 55 8 23 1 23 0 5 -8z m20 -279 c-3 -6 -11 -11 -16 -11
-5 0 -4 6 3 14 14 16 24 13 13 -3z m-214 -23 c11 -21 11 -22 -4 -9 -10 7 -17
17 -17 22 0 15 9 10 21 -13z m258 -35 c-26 -60 -77 -151 -90 -159 -5 -3 -7
-13 -4 -23 8 -27 -98 -146 -158 -176 -28 -13 -52 -23 -55 -21 -2 3 1 30 8 60
15 72 20 146 10 146 -5 0 -6 9 -3 20 3 11 9 20 14 20 5 0 9 5 9 10 0 6 -30 10
-67 11 -38 0 -76 3 -85 7 -10 4 13 7 50 7 66 0 152 20 152 36 0 5 19 13 43 19
69 18 97 31 117 58 11 13 20 23 20 20 0 -5 -75 -146 -121 -228 l-20 -35 23 29
c13 16 38 47 56 69 18 22 51 71 74 108 22 38 42 69 44 69 2 0 -6 -21 -17 -47z
m-299 -35 c0 -5 -18 -8 -41 -8 l-40 0 22 31 22 31 18 -23 c10 -13 19 -27 19
-31z m208 38 c-7 -7 -17 -13 -23 -13 -5 0 -18 -4 -27 -8 -11 -4 -18 -3 -18 4
0 12 29 26 60 28 15 1 17 -1 8 -11z m-106 -7 c32 3 38 -14 8 -22 -12 -3 -29 3
-43 15 -12 11 -15 16 -7 12 8 -5 27 -7 42 -5z m477 -273 c1 -6 -5 -1 -13 9 -8
11 -12 24 -8 29 5 9 20 -17 21 -38z m311 -50 c89 -19 127 -29 198 -51 99 -30
48 -23 -103 16 -82 21 -162 38 -177 39 -16 0 -28 5 -28 11 0 6 8 8 18 5 9 -3
51 -12 92 -20z m-934 -44 c-4 -3 -21 2 -39 11 -31 15 -31 16 -9 23 12 3 22 11
22 18 1 6 8 -2 16 -17 9 -16 13 -31 10 -35z m1244 -52 c0 -5 -7 -7 -15 -4 -8
4 -15 8 -15 10 0 2 7 4 15 4 8 0 15 -4 15 -10z m-1980 -254 c0 -2 -8 -10 -17
-17 -16 -13 -17 -12 -4 4 13 16 21 21 21 13z m1899 -211 c2 -3 -148 -5 -335
-4 -186 1 -328 4 -314 8 26 8 641 4 649 -4z"/>
<path d="M623 2140 c0 -25 2 -35 4 -22 2 12 2 32 0 45 -2 12 -4 2 -4 -23z"/>
<path d="M2321 2079 l-1 -96 28 5 29 4 -20 71 c-32 118 -36 119 -36 16z"/>
<path d="M306 2123 c-3 -21 -6 -63 -7 -93 0 -47 -2 -52 -10 -30 -10 24 -11 23
-28 -25 -9 -27 -15 -53 -13 -57 2 -5 19 -8 38 -8 l34 0 0 125 c0 69 -2 125 -4
125 -2 0 -6 -17 -10 -37z"/>
<path d="M623 2040 c0 -30 2 -43 4 -27 2 15 2 39 0 55 -2 15 -4 2 -4 -28z"/>
<path d="M2327 1954 c-15 -15 -7 -45 11 -42 9 2 17 12 17 22 0 20 -16 31 -28
20z"/>
<path d="M2380 1880 c0 -47 -4 -80 -10 -80 -5 0 -10 23 -10 50 0 39 -4 50 -16
50 -8 0 -12 -4 -9 -10 3 -5 1 -10 -6 -10 -9 0 -9 -3 0 -14 8 -10 9 -16 1 -21
-6 -3 -8 -11 -5 -16 4 -5 -14 -8 -42 -8 l-48 2 40 7 40 7 -43 2 c-26 0 -41 5
-37 11 3 6 1 10 -4 10 -6 0 -11 -4 -11 -10 0 -5 -25 -10 -55 -10 -48 0 -55 -2
-55 -20 0 -17 7 -20 44 -20 25 0 48 -4 51 -10 4 -6 -13 -10 -45 -10 l-50 0 2
-55 c2 -39 7 -56 18 -59 12 -3 11 -4 -2 -5 -28 -2 -23 -41 5 -42 18 -1 17 -2
-7 -9 -16 -5 -33 -7 -38 -4 -5 3 -20 3 -32 0 -22 -5 -23 -9 -15 -48 4 -24 14
-59 23 -78 l15 -35 7 43 c3 23 10 42 15 42 8 0 1 -60 -11 -94 -3 -10 2 -45 13
-77 l19 -59 61 -1 62 -2 -57 -9 c-57 -10 -57 -10 -52 -42 20 -111 110 -404
142 -458 9 -15 30 -33 46 -39 17 -7 35 -19 39 -26 4 -7 22 -20 40 -29 18 -10
48 -30 67 -45 19 -17 47 -29 62 -29 l28 0 0 386 c0 433 8 374 -90 684 -32 102
-64 204 -70 228 -6 23 -13 42 -15 42 -3 0 -5 -36 -5 -80z m-195 -180 c-3 -5
-13 -10 -21 -10 -8 0 -14 5 -14 10 0 6 9 10 21 10 11 0 17 -4 14 -10z m182
-82 c-3 -7 -5 -2 -5 12 0 14 2 19 5 13 2 -7 2 -19 0 -25z"/>
<path d="M2000 1935 c7 -9 29 -15 51 -15 28 0 39 4 39 15 0 11 -12 15 -51 15
-45 0 -50 -2 -39 -15z"/>
<path d="M2112 1933 c3 -15 17 -18 101 -21 92 -3 97 -2 97 18 0 19 -6 20 -101
20 -90 0 -100 -2 -97 -17z"/>
<path d="M1998 1895 c-20 -20 27 -185 53 -185 4 0 14 -3 23 -6 12 -4 16 0 16
15 0 12 -5 21 -12 21 -9 0 -9 3 0 12 21 21 13 30 -25 26 -29 -2 -38 1 -38 12
0 11 10 15 38 14 31 -2 37 2 37 18 0 17 -6 19 -37 16 -35 -3 -38 -1 -39 25 -1
29 -7 41 -16 32z"/>
<path d="M403 1882 c-45 -2 -63 -7 -63 -17 0 -7 6 -16 13 -18 9 -4 9 -7 0 -14
-15 -11 -21 -211 -11 -353 6 -75 3 -65 -11 49 -11 86 -23 146 -31 151 -9 5 -9
9 -1 11 12 4 21 139 10 139 -4 0 -11 -6 -18 -13 -8 -10 -7 -17 2 -27 10 -10 9
-12 -6 -6 -10 3 -21 6 -23 6 -9 0 -3 39 6 45 6 4 7 11 4 17 -5 7 2 9 20 4 19
-5 26 -3 26 9 0 18 -30 20 -54 2 -19 -14 -23 -30 -27 -97 l-2 -45 -11 60 -12
60 -12 -70 c-7 -38 -39 -153 -72 -255 -33 -102 -75 -238 -95 -303 l-35 -118 0
-305 0 -306 24 29 c13 15 26 37 29 48 4 16 5 17 6 3 2 -26 30 -22 41 5 l9 22
0 -22 c1 -29 16 -23 99 34 35 23 67 43 71 43 17 0 21 50 21 291 0 218 -2 248
-16 253 -14 5 -16 25 -13 150 3 104 8 148 18 160 11 13 16 14 22 4 5 -7 3 -16
-4 -20 -8 -5 -14 -51 -17 -134 -4 -111 -3 -131 13 -150 15 -20 17 -49 17 -271
l0 -248 43 46 c126 137 134 159 101 255 -29 82 -35 215 -11 242 8 9 18 33 22
52 4 19 12 38 17 41 5 3 21 53 34 110 13 57 28 119 33 137 7 26 6 32 -6 32 -9
0 -13 6 -9 15 3 9 0 15 -10 15 -13 0 -13 2 -2 13 7 8 20 16 28 20 11 4 8 8
-10 13 l-25 8 25 6 c22 5 25 12 28 52 2 26 -2 49 -7 52 -5 4 -49 7 -98 7 -79
1 -89 3 -89 19 0 20 46 33 68 18 10 -6 9 -8 -2 -8 -12 0 -12 -2 -2 -9 7 -4 25
-6 40 -3 l26 5 -25 11 c-21 9 -18 11 34 16 128 12 26 39 -120 32z m137 -112
c0 -5 -8 -10 -17 -10 -15 0 -16 2 -3 10 19 12 20 12 20 0z m-62 -6 c-10 -9
-88 -12 -88 -3 0 5 21 9 47 9 25 0 44 -3 41 -6z m-178 -34 c0 -5 -7 -10 -15
-10 -8 0 -15 5 -15 10 0 6 7 10 15 10 8 0 15 -4 15 -10z m230 0 c0 -5 -5 -10
-11 -10 -5 0 -7 5 -4 10 3 6 8 10 11 10 2 0 4 -4 4 -10z m-10 -40 c0 -5 -10
-10 -22 -9 -22 0 -22 1 -3 9 11 5 21 9 23 9 1 1 2 -3 2 -9z m-283 -82 c-3 -7
-5 -2 -5 12 0 14 2 19 5 13 2 -7 2 -19 0 -25z"/>
<path d="M455 579 c-22 -10 -29 -16 -15 -13 38 10 70 23 70 29 0 8 -13 5 -55
-16z"/>
<path d="M332 543 c-64 -23 -44 -26 24 -4 32 10 50 19 39 19 -11 0 -39 -6 -63
-15z"/>
</g>
</svg>
